<svg xmlns="http://www.w3.org/2000/svg" xmlns:xlink="http://www.w3.org/1999/xlink" width="1920" zoomAndPan="magnify" viewBox="0 0 1440 809.999993" height="1080" preserveAspectRatio="xMidYMid meet" version="1.0"><defs><clipPath id="b3b5e8f9b5"><path d="M 697 34.757812 L 752 34.757812 L 752 97 L 697 97 Z M 697 34.757812 " clip-rule="nonzero"/></clipPath><clipPath id="5401d0ef92"><path d="M 581.160156 717 L 858.660156 717 L 858.660156 775.007812 L 581.160156 775.007812 Z M 581.160156 717 " clip-rule="nonzero"/></clipPath><clipPath id="4270e12098"><path d="M 708 34.757812 L 741 34.757812 L 741 97 L 708 97 Z M 708 34.757812 " clip-rule="nonzero"/></clipPath><clipPath id="c370662f59"><path d="M 717 34.757812 L 732 34.757812 L 732 92 L 717 92 Z M 717 34.757812 " clip-rule="nonzero"/></clipPath></defs><g clip-path="url(#b3b5e8f9b5)"><path fill="#951a2e" d="M 724.441406 34.757812 C 724.441406 34.757812 697.414062 39.941406 697.414062 66.96875 C 697.414062 93.996094 697.414062 96.957031 697.414062 96.957031 L 751.46875 96.957031 C 751.46875 96.957031 751.46875 93.996094 751.46875 66.96875 C 751.46875 39.941406 724.441406 34.757812 724.441406 34.757812 Z M 724.441406 34.757812 " fill-opacity="1" fill-rule="nonzero"/></g><path fill="#faac1b" d="M 697.78125 93.253906 L 608.925781 162.859375 C 608.925781 162.859375 600.410156 131.761719 615.957031 116.582031 C 631.507812 101.402344 644.46875 113.617188 644.46875 113.617188 C 644.46875 113.617188 650.019531 93.253906 698.152344 81.777344 L 698.152344 93.253906 Z M 697.78125 93.253906 " fill-opacity="1" fill-rule="nonzero"/><path fill="#faac1b" d="M 752.578125 93.253906 L 841.4375 162.859375 C 841.4375 162.859375 849.953125 131.761719 834.402344 116.582031 C 819.222656 101.402344 805.894531 113.617188 805.894531 113.617188 C 805.894531 113.617188 800.339844 93.253906 752.207031 81.777344 L 752.207031 93.253906 Z M 752.578125 93.253906 " fill-opacity="1" fill-rule="nonzero"/><path fill="#bc422e" d="M 726.289062 91.40625 L 694.820312 91.40625 L 621.882812 149.164062 L 657.796875 155.085938 L 726.289062 155.085938 Z M 726.289062 91.40625 " fill-opacity="1" fill-rule="nonzero"/><path fill="#bc422e" d="M 722.957031 91.40625 L 754.429688 91.40625 L 827.367188 149.164062 L 791.453125 155.085938 L 722.957031 155.085938 Z M 722.957031 91.40625 " fill-opacity="1" fill-rule="nonzero"/><path fill="#951a2e" d="M 671.496094 196.554688 L 780.714844 196.554688 L 780.714844 319.101562 L 671.496094 319.101562 Z M 671.496094 196.554688 " fill-opacity="1" fill-rule="nonzero"/><path fill="#951a2e" d="M 621.140625 672.3125 L 818.480469 672.3125 L 818.480469 702.304688 L 621.140625 702.304688 Z M 621.140625 672.3125 " fill-opacity="1" fill-rule="nonzero"/><path fill="#bc422e" d="M 603.742188 698.972656 L 836.253906 698.972656 L 836.253906 720.445312 L 603.742188 720.445312 Z M 603.742188 698.972656 " fill-opacity="1" fill-rule="nonzero"/><g clip-path="url(#5401d0ef92)"><path fill="#faac1b" d="M 858.097656 775.242188 L 581.898438 775.242188 L 581.898438 741.917969 L 603.742188 717.855469 L 836.253906 717.855469 L 858.097656 741.917969 Z M 858.097656 775.242188 " fill-opacity="1" fill-rule="nonzero"/></g><path fill="#951a2e" d="M 658.167969 329.839844 L 792.195312 329.839844 L 792.195312 412.035156 L 658.167969 412.035156 Z M 658.167969 329.839844 " fill-opacity="1" fill-rule="nonzero"/><path fill="#faac1b" d="M 658.167969 352.796875 L 676.308594 352.796875 L 676.308594 412.035156 L 658.167969 412.035156 Z M 658.167969 352.796875 " fill-opacity="1" fill-rule="nonzero"/><path fill="#faac1b" d="M 774.050781 352.796875 L 792.195312 352.796875 L 792.195312 412.035156 L 774.050781 412.035156 Z M 774.050781 352.796875 " fill-opacity="1" fill-rule="nonzero"/><path fill="#bc422e" d="M 685.933594 321.695312 L 685.933594 342.796875 C 685.933594 342.796875 674.457031 342.058594 674.457031 335.765625 C 674.457031 335.765625 668.164062 352.796875 645.949219 352.796875 L 645.949219 321.324219 L 685.933594 321.324219 Z M 685.933594 321.695312 " fill-opacity="1" fill-rule="nonzero"/><path fill="#bc422e" d="M 764.425781 321.695312 L 764.425781 342.796875 C 764.425781 342.796875 775.902344 342.058594 775.902344 335.765625 C 775.902344 335.765625 782.199219 352.796875 804.410156 352.796875 L 804.410156 321.324219 L 764.425781 321.324219 Z M 764.425781 321.695312 " fill-opacity="1" fill-rule="nonzero"/><path fill="#bc422e" d="M 645.949219 314.660156 L 804.042969 314.660156 L 804.042969 334.652344 L 645.949219 334.652344 Z M 645.949219 314.660156 " fill-opacity="1" fill-rule="nonzero"/><path fill="#bc422e" d="M 777.753906 300.960938 L 774.421875 300.960938 C 769.238281 300.960938 764.425781 302.070312 761.464844 303.921875 C 758.871094 305.40625 755.167969 306.144531 751.46875 306.144531 L 698.894531 306.144531 C 694.820312 306.144531 691.117188 305.40625 688.898438 303.921875 C 685.933594 302.070312 681.121094 300.960938 675.9375 300.960938 L 672.605469 300.960938 L 669.644531 322.066406 L 780.714844 322.066406 Z M 777.753906 300.960938 " fill-opacity="1" fill-rule="nonzero"/><path fill="#951a2e" d="M 798.117188 215.433594 L 725.179688 191.738281 L 652.242188 215.433594 L 652.242188 162.859375 L 798.117188 162.859375 Z M 798.117188 215.433594 " fill-opacity="1" fill-rule="nonzero"/><path fill="#faac1b" d="M 640.023438 165.082031 L 640.023438 203.957031 C 640.023438 203.957031 675.566406 195.441406 675.566406 174.339844 C 675.566406 174.339844 683.714844 180.632812 693.339844 180.632812 L 693.339844 165.082031 Z M 640.023438 165.082031 " fill-opacity="1" fill-rule="nonzero"/><path fill="#faac1b" d="M 810.335938 165.082031 L 810.335938 203.957031 C 810.335938 203.957031 774.792969 195.441406 774.792969 174.339844 C 774.792969 174.339844 766.648438 180.632812 757.019531 180.632812 L 757.019531 165.082031 Z M 810.335938 165.082031 " fill-opacity="1" fill-rule="nonzero"/><path fill="#bc422e" d="M 806.261719 232.464844 C 806.261719 232.464844 804.410156 210.621094 782.199219 210.621094 C 782.199219 210.621094 758.132812 177.300781 725.921875 176.191406 C 725.921875 176.191406 725.550781 176.191406 725.179688 176.191406 C 724.808594 176.191406 724.441406 176.191406 724.441406 176.191406 C 692.230469 177.300781 668.164062 210.621094 668.164062 210.621094 C 645.949219 210.621094 644.097656 232.464844 644.097656 232.464844 L 665.941406 232.464844 L 665.199219 312.4375 L 677.046875 312.4375 C 677.046875 312.4375 677.046875 258.753906 677.046875 234.316406 C 677.046875 223.210938 687.046875 214.324219 698.152344 208.03125 C 714.8125 198.40625 735.546875 198.40625 752.207031 208.03125 C 763.316406 214.324219 773.3125 223.210938 773.3125 234.316406 C 773.3125 258.753906 773.3125 312.4375 773.3125 312.4375 L 785.160156 312.4375 L 784.046875 232.464844 Z M 806.261719 232.464844 " fill-opacity="1" fill-rule="nonzero"/><path fill="#faac1b" d="M 765.167969 322.066406 L 765.167969 295.039062 C 765.167969 295.039062 779.605469 296.148438 779.605469 303.921875 C 779.605469 303.921875 787.75 282.078125 815.890625 282.078125 L 815.890625 321.695312 L 765.167969 321.695312 Z M 765.167969 322.066406 " fill-opacity="1" fill-rule="nonzero"/><path fill="#faac1b" d="M 685.195312 322.066406 L 685.195312 295.039062 C 685.195312 295.039062 670.753906 296.148438 670.753906 303.921875 C 670.753906 303.921875 662.609375 282.078125 634.472656 282.078125 L 634.472656 321.695312 L 685.195312 321.695312 Z M 685.195312 322.066406 " fill-opacity="1" fill-rule="nonzero"/><path fill="#faac1b" d="M 634.472656 312.4375 L 815.890625 312.4375 L 815.890625 326.136719 L 634.472656 326.136719 Z M 634.472656 312.4375 " fill-opacity="1" fill-rule="nonzero"/><path fill="#faac1b" d="M 658.167969 352.796875 L 792.195312 352.796875 L 792.195312 372.046875 L 658.167969 372.046875 Z M 658.167969 352.796875 " fill-opacity="1" fill-rule="nonzero"/><path fill="#bc422e" d="M 725.179688 371.675781 L 676.308594 390.191406 L 725.179688 408.703125 Z M 725.179688 371.675781 " fill-opacity="1" fill-rule="nonzero"/><path fill="#bc422e" d="M 725.179688 371.675781 L 774.050781 390.191406 L 725.179688 408.703125 Z M 725.179688 371.675781 " fill-opacity="1" fill-rule="nonzero"/><path fill="#faac1b" d="M 835.140625 569.757812 C 825.886719 527.550781 824.777344 469.421875 824.777344 444.246094 C 824.777344 437.582031 819.59375 432.027344 812.925781 432.027344 L 637.433594 432.027344 C 631.140625 432.027344 625.585938 437.582031 625.585938 444.246094 C 625.585938 469.050781 624.472656 527.550781 615.21875 569.757812 C 603 624.554688 599.667969 686.382812 599.667969 686.382812 L 851.0625 686.382812 C 850.691406 686.753906 846.988281 624.921875 835.140625 569.757812 Z M 835.140625 569.757812 " fill-opacity="1" fill-rule="nonzero"/><path fill="#c42f4f" d="M 838.84375 544.210938 C 829.21875 503.855469 828.109375 447.578125 828.109375 423.882812 C 828.109375 417.585938 822.554688 412.40625 815.890625 412.40625 L 634.101562 412.40625 C 627.4375 412.40625 621.882812 417.585938 621.882812 423.882812 C 621.882812 447.949219 620.773438 503.855469 611.144531 544.210938 C 598.558594 596.785156 594.855469 656.394531 594.855469 656.394531 L 854.765625 656.394531 C 855.136719 656.394531 851.433594 596.785156 838.84375 544.210938 Z M 838.84375 544.210938 " fill-opacity="1" fill-rule="nonzero"/><path fill="#fbe47e" d="M 730.734375 656.394531 L 855.136719 656.394531 C 855.136719 656.394531 854.394531 647.507812 853.285156 633.070312 C 786.640625 637.140625 639.65625 635.289062 597.078125 634.550781 C 595.59375 647.878906 595.226562 656.023438 595.226562 656.023438 L 730.734375 656.023438 Z M 730.734375 656.394531 " fill-opacity="1" fill-rule="nonzero"/><path fill="#951a2e" d="M 726.289062 149.164062 L 621.882812 149.164062 L 638.914062 160.640625 L 810.335938 160.640625 L 827.367188 149.164062 Z M 726.289062 149.164062 " fill-opacity="1" fill-rule="nonzero"/><path fill="#faac1b" d="M 640.023438 160.640625 L 809.964844 160.640625 L 809.964844 168.414062 L 640.023438 168.414062 Z M 640.023438 160.640625 " fill-opacity="1" fill-rule="nonzero"/><path fill="#faac1b" d="M 640.023438 165.082031 L 640.023438 203.957031 C 640.023438 203.957031 675.566406 195.441406 675.566406 174.339844 C 675.566406 174.339844 683.714844 180.632812 693.339844 180.632812 L 693.339844 165.082031 Z M 640.023438 165.082031 " fill-opacity="1" fill-rule="nonzero"/><g clip-path="url(#4270e12098)"><path fill="#bc422e" d="M 724.441406 34.757812 C 724.441406 34.757812 708.519531 39.941406 708.519531 66.96875 C 708.519531 93.996094 708.519531 96.957031 708.519531 96.957031 L 740.359375 96.957031 C 740.359375 96.957031 740.359375 93.996094 740.359375 66.96875 C 740.359375 39.941406 724.441406 34.757812 724.441406 34.757812 Z M 724.441406 34.757812 " fill-opacity="1" fill-rule="nonzero"/></g><g clip-path="url(#c370662f59)"><path fill="#951a2e" d="M 724.441406 34.757812 C 724.441406 34.757812 717.777344 39.570312 717.777344 64.007812 C 717.777344 88.441406 717.777344 91.40625 717.777344 91.40625 L 731.105469 91.40625 C 731.105469 91.40625 731.105469 88.8125 731.105469 64.007812 C 731.105469 39.199219 724.441406 34.757812 724.441406 34.757812 Z M 724.441406 34.757812 " fill-opacity="1" fill-rule="nonzero"/></g><path fill="#faac1b" d="M 756.28125 91.40625 L 756.28125 62.527344 C 756.28125 62.527344 738.507812 68.820312 738.507812 84.371094 C 738.507812 84.371094 734.4375 79.925781 729.625 79.925781 L 729.625 91.40625 Z M 756.28125 91.40625 " fill-opacity="1" fill-rule="nonzero"/><path fill="#faac1b" d="M 693.339844 91.40625 L 693.339844 62.527344 C 693.339844 62.527344 711.109375 68.820312 711.109375 84.371094 C 711.109375 84.371094 715.183594 79.925781 719.996094 79.925781 L 719.996094 91.40625 Z M 693.339844 91.40625 " fill-opacity="1" fill-rule="nonzero"/></svg>